<mxfile host="app.diagrams.net" modified="2023-09-06T11:38:53.287Z" agent="Mozilla/5.0 (X11; Linux x86_64) AppleWebKit/537.36 (KHTML, like Gecko) Chrome/114.0.0.0 Safari/537.36 Edg/114.0.1823.67" etag="x8Z6Tumk6_j9dPMEsToF" version="21.7.2" type="github">
  <diagram id="C5RBs43oDa-KdzZeNtuy" name="Page-1">
    <mxGraphModel dx="1346" dy="775" grid="1" gridSize="10" guides="1" tooltips="1" connect="1" arrows="1" fold="1" page="1" pageScale="1" pageWidth="827" pageHeight="1169" math="0" shadow="0">
      <root>
        <mxCell id="WIyWlLk6GJQsqaUBKTNV-0" />
        <mxCell id="WIyWlLk6GJQsqaUBKTNV-1" parent="WIyWlLk6GJQsqaUBKTNV-0" />
        <mxCell id="WIyWlLk6GJQsqaUBKTNV-3" value="&lt;font style=&quot;font-size: 18px;&quot;&gt;add ;&lt;br&gt;sub ;&lt;br&gt;mul ;&lt;br&gt;&lt;/font&gt;" style="rounded=1;whiteSpace=wrap;html=1;fontSize=12;glass=0;strokeWidth=1;shadow=0;" parent="WIyWlLk6GJQsqaUBKTNV-1" vertex="1">
          <mxGeometry x="135" y="270" width="100" height="130" as="geometry" />
        </mxCell>
        <mxCell id="2ynxKw8FbLTtFjrFdyPT-0" value="&lt;font size=&quot;3&quot;&gt;用户 cnasm 程序&lt;/font&gt;" style="rounded=0;whiteSpace=wrap;html=1;strokeColor=none;fillColor=none;" vertex="1" parent="WIyWlLk6GJQsqaUBKTNV-1">
          <mxGeometry x="100" y="410" width="170" height="30" as="geometry" />
        </mxCell>
        <mxCell id="2ynxKw8FbLTtFjrFdyPT-1" value="&lt;font style=&quot;font-size: 18px;&quot;&gt;nop ;&lt;br&gt;mul ;&lt;br&gt;sub ;&lt;br&gt;add ;&lt;br&gt;&lt;/font&gt;" style="rounded=1;whiteSpace=wrap;html=1;fontSize=12;glass=0;strokeWidth=1;shadow=0;" vertex="1" parent="WIyWlLk6GJQsqaUBKTNV-1">
          <mxGeometry x="300" y="270" width="100" height="130" as="geometry" />
        </mxCell>
        <mxCell id="2ynxKw8FbLTtFjrFdyPT-2" value="&lt;font style=&quot;font-size: 18px;&quot;&gt;add ;&lt;br&gt;sub ;&lt;br&gt;mul ;&lt;br&gt;nop ;&lt;br&gt;&lt;/font&gt;" style="rounded=1;whiteSpace=wrap;html=1;fontSize=12;glass=0;strokeWidth=1;shadow=0;" vertex="1" parent="WIyWlLk6GJQsqaUBKTNV-1">
          <mxGeometry x="465" y="270" width="100" height="130" as="geometry" />
        </mxCell>
        <mxCell id="2ynxKw8FbLTtFjrFdyPT-3" value="&lt;font size=&quot;3&quot;&gt;补 nop 并逆序后&lt;br&gt;cninst 顺序&lt;/font&gt;" style="rounded=0;whiteSpace=wrap;html=1;strokeColor=none;fillColor=none;" vertex="1" parent="WIyWlLk6GJQsqaUBKTNV-1">
          <mxGeometry x="262.5" y="410" width="175" height="50" as="geometry" />
        </mxCell>
        <mxCell id="2ynxKw8FbLTtFjrFdyPT-4" value="&lt;font size=&quot;3&quot;&gt;实际执行顺序&lt;/font&gt;" style="rounded=0;whiteSpace=wrap;html=1;strokeColor=none;fillColor=none;" vertex="1" parent="WIyWlLk6GJQsqaUBKTNV-1">
          <mxGeometry x="430" y="410" width="170" height="30" as="geometry" />
        </mxCell>
      </root>
    </mxGraphModel>
  </diagram>
</mxfile>
